<?xml version="1.0" encoding="UTF-8"?>
<svg width="800" height="600" viewBox="0 0 800 600" fill="none" xmlns="http://www.w3.org/2000/svg">
  <!-- Background -->
  <rect width="800" height="600" fill="#F9FAFB"/>
  
  <!-- Main Node -->
  <rect x="350" y="250" width="100" height="40" rx="8" fill="#6366F1" opacity="0.1"/>
  <text x="400" y="275" text-anchor="middle" fill="#6366F1" font-family="Inter" font-size="14">Main Idea</text>
  
  <!-- Level 1 Nodes -->
  <rect x="150" y="150" width="100" height="40" rx="8" fill="#6366F1" opacity="0.1"/>
  <text x="200" y="175" text-anchor="middle" fill="#6366F1" font-family="Inter" font-size="14">Topic 1</text>
  
  <rect x="550" y="150" width="100" height="40" rx="8" fill="#6366F1" opacity="0.1"/>
  <text x="600" y="175" text-anchor="middle" fill="#6366F1" font-family="Inter" font-size="14">Topic 2</text>
  
  <rect x="150" y="350" width="100" height="40" rx="8" fill="#6366F1" opacity="0.1"/>
  <text x="200" y="375" text-anchor="middle" fill="#6366F1" font-family="Inter" font-size="14">Topic 3</text>
  
  <rect x="550" y="350" width="100" height="40" rx="8" fill="#6366F1" opacity="0.1"/>
  <text x="600" y="375" text-anchor="middle" fill="#6366F1" font-family="Inter" font-size="14">Topic 4</text>
  
  <!-- Level 2 Nodes -->
  <rect x="50" y="100" width="80" height="30" rx="6" fill="#6366F1" opacity="0.1"/>
  <text x="90" y="120" text-anchor="middle" fill="#6366F1" font-family="Inter" font-size="12">Subtopic 1.1</text>
  
  <rect x="50" y="300" width="80" height="30" rx="6" fill="#6366F1" opacity="0.1"/>
  <text x="90" y="320" text-anchor="middle" fill="#6366F1" font-family="Inter" font-size="12">Subtopic 3.1</text>
  
  <rect x="670" y="100" width="80" height="30" rx="6" fill="#6366F1" opacity="0.1"/>
  <text x="710" y="120" text-anchor="middle" fill="#6366F1" font-family="Inter" font-size="12">Subtopic 2.1</text>
  
  <rect x="670" y="300" width="80" height="30" rx="6" fill="#6366F1" opacity="0.1"/>
  <text x="710" y="320" text-anchor="middle" fill="#6366F1" font-family="Inter" font-size="12">Subtopic 4.1</text>
  
  <!-- Connections -->
  <line x1="400" y1="250" x2="200" y2="190" stroke="#6366F1" stroke-width="2" opacity="0.3"/>
  <line x1="400" y1="250" x2="600" y2="190" stroke="#6366F1" stroke-width="2" opacity="0.3"/>
  <line x1="400" y1="290" x2="200" y2="350" stroke="#6366F1" stroke-width="2" opacity="0.3"/>
  <line x1="400" y1="290" x2="600" y2="350" stroke="#6366F1" stroke-width="2" opacity="0.3"/>
  
  <line x1="200" y1="150" x2="90" y2="115" stroke="#6366F1" stroke-width="2" opacity="0.3"/>
  <line x1="200" y1="350" x2="90" y2="315" stroke="#6366F1" stroke-width="2" opacity="0.3"/>
  <line x1="600" y1="150" x2="710" y2="115" stroke="#6366F1" stroke-width="2" opacity="0.3"/>
  <line x1="600" y1="350" x2="710" y2="315" stroke="#6366F1" stroke-width="2" opacity="0.3"/>
</svg> 