<?xml version="1.0" encoding="UTF-8"?>
<svg width="120" height="120" viewBox="0 0 120 120" fill="none" xmlns="http://www.w3.org/2000/svg">
  <!-- Background Circle -->
  <circle cx="60" cy="60" r="55" fill="#6366F1" opacity="0.1"/>
  
  <!-- Central Node -->
  <circle cx="60" cy="60" r="15" fill="#6366F1"/>
  
  <!-- Connection Lines -->
  <line x1="60" y1="75" x2="60" y2="90" stroke="#6366F1" stroke-width="3"/>
  <line x1="60" y1="45" x2="60" y2="30" stroke="#6366F1" stroke-width="3"/>
  <line x1="75" y1="60" x2="90" y2="60" stroke="#6366F1" stroke-width="3"/>
  <line x1="45" y1="60" x2="30" y2="60" stroke="#6366F1" stroke-width="3"/>
  
  <!-- Connected Nodes -->
  <circle cx="60" cy="90" r="8" fill="#6366F1"/>
  <circle cx="60" cy="30" r="8" fill="#6366F1"/>
  <circle cx="90" cy="60" r="8" fill="#6366F1"/>
  <circle cx="30" cy="60" r="8" fill="#6366F1"/>
  
  <!-- Diagonal Connections -->
  <line x1="75" y1="75" x2="85" y2="85" stroke="#6366F1" stroke-width="2"/>
  <line x1="45" y1="45" x2="35" y2="35" stroke="#6366F1" stroke-width="2"/>
  <line x1="75" y1="45" x2="85" y2="35" stroke="#6366F1" stroke-width="2"/>
  <line x1="45" y1="75" x2="35" y2="85" stroke="#6366F1" stroke-width="2"/>
  
  <!-- Diagonal Nodes -->
  <circle cx="85" cy="85" r="6" fill="#6366F1"/>
  <circle cx="35" cy="35" r="6" fill="#6366F1"/>
  <circle cx="85" cy="35" r="6" fill="#6366F1"/>
  <circle cx="35" cy="85" r="6" fill="#6366F1"/>
</svg> 